<svg id="facebook_copy" data-name="facebook copy" xmlns="http://www.w3.org/2000/svg" xmlns:xlink="http://www.w3.org/1999/xlink" width="20" height="21" viewBox="0 0 20 21">
  <defs>
    <clipPath id="clip-path">
      <path id="icon_social_twitter_24px" data-name="icon/social/twitter_24px" d="M7.045,21A9.339,9.339,0,0,1,2.45,19.845,8.528,8.528,0,0,1,.668,18.606C-.639,17.365.1,14.794,1.756,14.845a8.536,8.536,0,0,0,.892-.015,5.646,5.646,0,0,1-.919-2.17,2.584,2.584,0,0,1-.033-.648c-.109-.163-.21-.33-.3-.5a6.763,6.763,0,0,1-.81-3.575c.006-.106.006-.106.012-.171a2.418,2.418,0,0,1,.232-.842A8.239,8.239,0,0,1,.885,2.83,7.409,7.409,0,0,1,1.2,1.845a1.557,1.557,0,0,1,2.822-.413A9.267,9.267,0,0,0,7.675,4.8a4.43,4.43,0,0,0,.42.163c.374-2.9,1.927-4.634,3.419-4.788a5.617,5.617,0,0,1,4.3.619c.068.039.132.079.194.119l1.2-.6C18.448-.3,19.755.99,19.538,2.607a2.432,2.432,0,0,1-.114,3L18.192,6.959a13.815,13.815,0,0,1-.741,4.822,15.3,15.3,0,0,1-4.262,6.749A10.128,10.128,0,0,1,9.219,20.7a7.8,7.8,0,0,1-2.028.3Z" transform="translate(0 0)" fill="#37474f"/>
    </clipPath>
  </defs>
  <g id="Groupe_2" data-name="Groupe 2" transform="translate(0 0)">
    <path id="icon_social_twitter_24px-2" data-name="icon/social/twitter_24px" d="M7.045,21A9.339,9.339,0,0,1,2.45,19.845,8.528,8.528,0,0,1,.668,18.606C-.639,17.365.1,14.794,1.756,14.845a8.536,8.536,0,0,0,.892-.015,5.646,5.646,0,0,1-.919-2.17,2.584,2.584,0,0,1-.033-.648c-.109-.163-.21-.33-.3-.5a6.763,6.763,0,0,1-.81-3.575c.006-.106.006-.106.012-.171a2.418,2.418,0,0,1,.232-.842A8.239,8.239,0,0,1,.885,2.83,7.409,7.409,0,0,1,1.2,1.845a1.557,1.557,0,0,1,2.822-.413A9.267,9.267,0,0,0,7.675,4.8a4.43,4.43,0,0,0,.42.163c.374-2.9,1.927-4.634,3.419-4.788a5.617,5.617,0,0,1,4.3.619c.068.039.132.079.194.119l1.2-.6C18.448-.3,19.755.99,19.538,2.607a2.432,2.432,0,0,1-.114,3L18.192,6.959a13.815,13.815,0,0,1-.741,4.822,15.3,15.3,0,0,1-4.262,6.749A10.128,10.128,0,0,1,9.219,20.7a7.8,7.8,0,0,1-2.028.3Z" transform="translate(0 0)" fill="#236cd9"/>
  </g>
</svg>
