<svg xmlns="http://www.w3.org/2000/svg" width="19.95" height="21" viewBox="0 0 19.95 21">
  <path id="icon" d="M13.965,21H5.985A6.155,6.155,0,0,1,0,14.7V6.3A6.155,6.155,0,0,1,5.985,0h7.98A6.155,6.155,0,0,1,19.95,6.3v8.4A6.155,6.155,0,0,1,13.965,21ZM5.985,2.1a4.1,4.1,0,0,0-3.99,4.2v8.4a4.1,4.1,0,0,0,3.99,4.2h7.98a4.1,4.1,0,0,0,3.99-4.2V6.3a4.1,4.1,0,0,0-3.99-4.2Zm3.99,13.65A5.13,5.13,0,0,1,4.987,10.5,5.13,5.13,0,0,1,9.975,5.251,5.129,5.129,0,0,1,14.963,10.5,5.13,5.13,0,0,1,9.975,15.751Zm0-8.4A3.078,3.078,0,0,0,6.983,10.5a3.078,3.078,0,0,0,2.993,3.15,3.078,3.078,0,0,0,2.993-3.15A3.078,3.078,0,0,0,9.975,7.35ZM14.963,6.3a1.051,1.051,0,1,1,1-1.049A1.026,1.026,0,0,1,14.963,6.3Z" transform="translate(0 0)" fill="#ff5552"/>
</svg>
